<svg width="51" height="72" viewBox="0 0 51 72" fill="none" xmlns="http://www.w3.org/2000/svg">
<g clip-path="url(#clip0_96_360)">
<path d="M25.4637 70.9416L5.11562 65.3144L0.581055 14.6496H50.4072L45.868 65.3066L25.4637 70.9416Z" fill="#264DE4"/>
<path d="M41.9818 62.0809L45.8608 18.7921H25.4941V66.6343L41.9818 62.0809Z" fill="#2965F1"/>
<path d="M10.9765 37.583L11.5354 43.7968H25.4942V37.583H10.9765ZM9.85303 25.0061L10.42 31.2199H25.4942V25.0061H9.85303ZM25.4942 53.721L25.4669 53.7282L18.52 51.8596L18.0759 46.9039H11.8142L12.688 56.6605L25.4655 60.1938L25.4942 60.1861V53.721Z" fill="#EBEBEB"/>
<path d="M12.3074 0.880981H19.8621V4.02827H15.4667V7.17556H19.8625V10.3227H12.3074V0.880981ZM21.3732 0.880981H28.9281V3.61774H24.5326V4.16505H28.9281V10.4596H21.3734V7.5857H25.7689V7.03839H21.373V0.880981H21.3732ZM30.4392 0.880981H37.9941V3.61774H33.5986V4.16505H37.9941V10.4596H30.4392V7.5857H34.8347V7.03839H30.4394V0.880981H30.4392Z" fill="#1F1F1F"/>
<path d="M39.972 37.583L41.098 25.0061H25.4726V31.2199H34.2621L33.6945 37.583H25.4726V43.7968H33.1537L32.4294 51.8557L25.4724 53.7263V60.1909L38.2601 56.6605L38.3539 55.6106L39.8199 39.2516L39.972 37.583Z" fill="white"/>
</g>
<defs>
<clipPath id="clip0_96_360">
<rect width="50" height="70.2381" fill="white" transform="translate(0.494141 0.880981)"/>
</clipPath>
</defs>
</svg>
