<svg width="50" height="73" viewBox="0 0 50 73" fill="none" xmlns="http://www.w3.org/2000/svg">
<g clip-path="url(#clip0_96_368)">
<path d="M49.9131 14.8099L45.3738 66.3255L24.9695 72.056L4.62148 66.3334L0.0869141 14.8099H49.9131Z" fill="#E44D26"/>
<path d="M25 67.6757L41.4877 63.0451L45.3666 19.0226H25V67.6757Z" fill="#F16529"/>
<path d="M16.1759 31.6611H25.0001V25.3419H9.35889L9.50811 27.0372L11.0413 44.4511H25.0001V38.132H16.746L16.1759 31.6611ZM17.5817 47.6108H11.32L12.1938 57.5329L24.9714 61.126L25.0001 61.1181V54.5435L24.9728 54.5509L18.0259 52.6506L17.5817 47.6108Z" fill="#EBEBEB"/>
<path d="M4.72266 0.807892H7.89258V3.98063H10.7924V0.807892H13.9625V10.4157H10.7926V7.19847H7.89277V10.4157H4.72285V0.807892H4.72266ZM18.1309 3.99408H15.3406V0.807892H24.0934V3.99408H21.3014V10.4157H18.1314V3.99408H18.1313H18.1309ZM25.4824 0.807892H28.7877L30.8209 4.18383L32.8521 0.807892H36.1588V10.4157H33.0018V5.65356L30.8209 9.06966H30.7662L28.584 5.65356V10.4157H25.4824V0.807892ZM37.7363 0.807892H40.9072V7.24002H45.365V10.4157H37.7361V0.807892H37.7363Z" fill="#1F1F1F"/>
<path d="M24.9785 44.4511H32.6595L31.9353 52.6466L24.9783 54.5489V61.1231L37.766 57.5329L37.8597 56.4652L39.3257 39.8289L39.4779 38.132H24.9785V44.4511ZM24.9785 31.6456V31.6611H40.0455L40.1705 30.2408L40.4548 27.0372L40.6039 25.3419H24.9785V31.6458V31.6456Z" fill="white"/>
</g>
<defs>
<clipPath id="clip0_96_368">
<rect width="50" height="71.4286" fill="white" transform="translate(0 0.807892)"/>
</clipPath>
</defs>
</svg>
