<svg width="40" height="72" viewBox="0 0 40 72" fill="none" xmlns="http://www.w3.org/2000/svg">
<g clip-path="url(#clip0_96_376)">
<path d="M37.5999 56.4218H37.3394V56.2582H38.0559V56.4218H37.7954V57.1745H37.5999V56.4218ZM39.0331 56.4545L38.7725 57.1745H38.6422L38.3816 56.4545V57.1745H38.2188V56.2909H38.4794L38.7074 56.9127L38.9354 56.2909H39.1959V57.1745H39.0331V56.4545Z" fill="#DF2B00"/>
<path d="M13.8554 38.1273C13.8554 38.1273 11.9989 39.2073 15.1583 39.5673C19.0017 39.9927 20.956 39.9273 25.1577 39.1418C25.1577 39.1418 26.2652 39.8291 27.8286 40.4509C18.3829 44.5418 6.42915 40.2218 13.8554 38.1273Z" fill="#5382A1"/>
<path d="M12.6828 32.8254C12.6828 32.8254 10.5983 34.3636 13.7903 34.6909C17.8943 35.1163 21.1188 35.1491 26.6886 34.0691C26.6886 34.0691 27.4703 34.8545 28.6754 35.28C17.2428 38.6509 4.50741 35.5418 12.6828 32.8254Z" fill="#5382A1"/>
<path d="M22.4216 23.7927C24.7667 26.4764 21.8027 28.9309 21.8027 28.9309C21.8027 28.9309 27.7307 25.8545 24.9947 22.0255C22.4541 18.4255 20.4999 16.6582 31.053 10.5054C31.0856 10.5054 14.5393 14.6618 22.4216 23.7927Z" fill="#DF2B00"/>
<path d="M34.9615 42.0545C34.9615 42.0545 36.3295 43.2 33.4632 44.0509C27.9912 45.72 10.7284 46.2109 5.94039 44.1163C4.2141 43.3636 7.43867 42.3163 8.48095 42.0873C9.55581 41.8582 10.1421 41.8909 10.1421 41.8909C8.22038 40.5491 -2.26761 44.5418 4.83296 45.72C24.0827 48.8945 39.9449 44.3454 34.9615 42.0545Z" fill="#5382A1"/>
<path d="M14.7347 27.2946C14.7347 27.2946 5.94046 29.3891 11.6079 30.1418C14.0182 30.4691 18.7736 30.4036 23.2359 30.0109C26.8839 29.7164 30.5319 29.0618 30.5319 29.0618C30.5319 29.0618 29.2616 29.6182 28.317 30.24C19.3924 32.5964 2.16217 31.5164 7.11303 29.0946C11.3147 27.0655 14.7347 27.3273 14.7347 27.2946Z" fill="#5382A1"/>
<path d="M30.4994 36.1636C39.5543 31.4182 35.3851 26.8691 32.4537 27.4909C31.7371 27.6545 31.4114 27.7527 31.4114 27.7527C31.4114 27.7527 31.672 27.3273 32.1931 27.1636C37.9908 25.1345 42.4206 33.1855 30.3366 36.3927C30.304 36.3927 30.4668 36.2618 30.4994 36.1636Z" fill="#5382A1"/>
<path d="M25.0275 0.589088C25.0275 0.589088 30.0435 5.62909 20.272 13.3854C12.4223 19.6036 18.4806 23.1709 20.272 27.2291C15.6795 23.0727 12.3246 19.4073 14.572 16.0036C17.8943 11.0291 27.0469 8.60727 25.0275 0.589088Z" fill="#DF2B00"/>
<path d="M15.6142 48.9927C24.3107 49.5491 37.6976 48.6982 37.9907 44.5418C37.9907 44.5418 37.3719 46.1127 30.7925 47.3563C23.3662 48.7636 14.2136 48.6 8.77417 47.6836C8.80674 47.6836 9.91417 48.6327 15.6142 48.9927Z" fill="#5382A1"/>
<path d="M14.2136 64.8C13.3994 65.52 12.5199 65.9127 11.7382 65.9127C10.6308 65.9127 10.0119 65.2582 10.0119 64.1782C10.0119 63.0327 10.6634 62.1818 13.2365 62.1818H14.1811L14.2136 64.8ZM16.4611 67.3854V59.4327C16.4611 57.4036 15.3211 56.0618 12.5199 56.0618C10.8914 56.0618 9.49079 56.4545 8.31822 56.9782L8.64393 58.3854C9.55593 58.0582 10.7285 57.7309 11.9011 57.7309C13.4971 57.7309 14.1811 58.3854 14.1811 59.7273V60.7418H13.3668C9.49079 60.7418 7.73193 62.2473 7.73193 64.5382C7.73193 66.5018 8.9045 67.6145 11.0542 67.6145C12.4548 67.6145 13.4971 67.0254 14.4742 66.1745L14.6371 67.3854H16.4611Z" fill="#DF2B00"/>
<path d="M24.0175 67.3854H21.1838L17.7964 56.2582H20.2718L22.389 63.0982L22.845 65.16C23.9198 62.1818 24.669 59.1709 25.0598 56.2582H27.4701C26.8187 59.9236 25.6461 63.9491 24.0175 67.3854Z" fill="#DF2B00"/>
<path d="M34.8639 64.8C34.0496 65.52 33.1702 65.9127 32.3885 65.9127C31.2811 65.9127 30.6622 65.2582 30.6622 64.1782C30.6622 63.0327 31.3136 62.1818 33.8868 62.1818H34.8314V64.8M37.1439 67.3854V59.4327C37.1439 57.4036 36.0039 56.0618 33.2028 56.0618C31.5742 56.0618 30.1411 56.4545 29.0011 56.9782L29.3268 58.3854C30.2388 58.0582 31.4114 57.7309 32.5839 57.7309C34.1799 57.7309 34.8639 58.3854 34.8639 59.7273V60.7418H34.0496C30.1737 60.7418 28.4148 62.2473 28.4148 64.5382C28.4148 66.5018 29.5548 67.6145 31.7371 67.6145C33.1376 67.6145 34.1799 67.0254 35.1571 66.1745L35.3199 67.3854H37.1439Z" fill="#DF2B00"/>
<path d="M5.25657 69.2509C4.60514 70.2 3.56286 70.9527 2.42286 71.3782L1.31543 70.0691C2.19486 69.6109 2.944 68.8909 3.26971 68.2364C3.56286 67.6473 3.69314 66.8618 3.69314 65.0291V52.3309H6.10343V64.8654C6.10343 67.2873 5.908 68.3018 5.25657 69.2509Z" fill="#DF2B00"/>
</g>
<defs>
<clipPath id="clip0_96_376">
<rect width="39.0857" height="72" fill="white" transform="translate(0.468506)"/>
</clipPath>
</defs>
</svg>
